<mxfile host="65bd71144e">
    <diagram id="VQ5N5fh5H-ArX9WsjE1C" name="Page-1">
        <mxGraphModel dx="2131" dy="1808" grid="1" gridSize="10" guides="1" tooltips="1" connect="1" arrows="1" fold="1" page="1" pageScale="1" pageWidth="1169" pageHeight="827" math="0" shadow="0">
            <root>
                <mxCell id="0"/>
                <mxCell id="1" parent="0"/>
                <mxCell id="59" value="AWS Cloud" style="outlineConnect=0;gradientColor=default;html=1;whiteSpace=wrap;fontSize=12;fontStyle=0;shape=mxgraph.aws4.group;grIcon=mxgraph.aws4.group_aws_cloud;strokeColor=#AAB7B8;fillColor=none;verticalAlign=top;align=left;spacingLeft=30;fontColor=#AAB7B8;dashed=0;gradientDirection=east;" vertex="1" parent="1">
                    <mxGeometry x="1080" y="840" width="1040" height="680" as="geometry"/>
                </mxCell>
                <mxCell id="91" value="use SSL Cettificate" style="edgeStyle=orthogonalEdgeStyle;sketch=1;html=1;dashed=1;fontSize=12;fontColor=#FFFFFF;" edge="1" parent="1" source="3" target="90">
                    <mxGeometry relative="1" as="geometry">
                        <Array as="points">
                            <mxPoint x="1440" y="1070"/>
                            <mxPoint x="1440" y="1070"/>
                        </Array>
                        <mxPoint as="offset"/>
                    </mxGeometry>
                </mxCell>
                <mxCell id="82" style="edgeStyle=orthogonalEdgeStyle;sketch=1;html=1;entryX=0;entryY=0.5;entryDx=0;entryDy=0;entryPerimeter=0;dashed=1;fontColor=#FFFFFF;" edge="1" parent="1" source="87" target="3">
                    <mxGeometry relative="1" as="geometry">
                        <mxPoint x="1040" y="1000.047619047619" as="sourcePoint"/>
                        <Array as="points">
                            <mxPoint x="960" y="1000"/>
                            <mxPoint x="960" y="1229"/>
                        </Array>
                    </mxGeometry>
                </mxCell>
                <mxCell id="83" value="https://paulserban.eu/porfolio-apps&lt;br&gt;https://stage.paulserban.eu/portoflio-apps&lt;br&gt;https://test.paulserban.eu/portfolio-apps&lt;br&gt;https://dev.paulserban.eu/portoflio-apps" style="edgeLabel;html=1;align=left;verticalAlign=middle;resizable=0;points=[];fontColor=#FFFFFF;" vertex="1" connectable="0" parent="82">
                    <mxGeometry x="-0.3289" y="-1" relative="1" as="geometry">
                        <mxPoint x="-129" y="-1" as="offset"/>
                    </mxGeometry>
                </mxCell>
                <mxCell id="80" style="edgeStyle=orthogonalEdgeStyle;sketch=1;html=1;dashed=1;fontColor=#FFFFFF;" edge="1" parent="1" source="87" target="63">
                    <mxGeometry relative="1" as="geometry">
                        <mxPoint x="1040" y="1000.047619047619" as="sourcePoint"/>
                        <Array as="points">
                            <mxPoint x="790" y="1000"/>
                            <mxPoint x="790" y="1000"/>
                        </Array>
                    </mxGeometry>
                </mxCell>
                <mxCell id="81" value="DNS Query &amp;amp; Response" style="edgeLabel;html=1;align=center;verticalAlign=middle;resizable=0;points=[];fontColor=#FFFFFF;fontSize=15;labelBackgroundColor=#000000;" vertex="1" connectable="0" parent="80">
                    <mxGeometry x="-0.1757" y="3" relative="1" as="geometry">
                        <mxPoint x="13" y="2" as="offset"/>
                    </mxGeometry>
                </mxCell>
                <mxCell id="60" value="AWS Account" style="points=[[0,0],[0.25,0],[0.5,0],[0.75,0],[1,0],[1,0.25],[1,0.5],[1,0.75],[1,1],[0.75,1],[0.5,1],[0.25,1],[0,1],[0,0.75],[0,0.5],[0,0.25]];outlineConnect=0;gradientColor=none;html=1;whiteSpace=wrap;fontSize=12;fontStyle=0;container=1;pointerEvents=0;collapsible=0;recursiveResize=0;shape=mxgraph.aws4.group;grIcon=mxgraph.aws4.group_account;strokeColor=#CD2264;fillColor=none;verticalAlign=top;align=left;spacingLeft=30;fontColor=#CD2264;dashed=0;" vertex="1" parent="1">
                    <mxGeometry x="1120" y="880" width="960" height="600" as="geometry"/>
                </mxCell>
                <mxCell id="61" value="Region" style="points=[[0,0],[0.25,0],[0.5,0],[0.75,0],[1,0],[1,0.25],[1,0.5],[1,0.75],[1,1],[0.75,1],[0.5,1],[0.25,1],[0,1],[0,0.75],[0,0.5],[0,0.25]];outlineConnect=0;gradientColor=none;html=1;whiteSpace=wrap;fontSize=12;fontStyle=0;container=1;pointerEvents=0;collapsible=0;recursiveResize=0;shape=mxgraph.aws4.group;grIcon=mxgraph.aws4.group_region;strokeColor=#147EBA;fillColor=none;verticalAlign=top;align=left;spacingLeft=30;fontColor=#147EBA;dashed=1;" vertex="1" parent="60">
                    <mxGeometry x="40" y="40" width="880" height="520" as="geometry"/>
                </mxCell>
                <mxCell id="3" value="&lt;font color=&quot;#ffffff&quot;&gt;CloudFront&lt;/font&gt;" style="sketch=0;points=[[0,0,0],[0.25,0,0],[0.5,0,0],[0.75,0,0],[1,0,0],[0,1,0],[0.25,1,0],[0.5,1,0],[0.75,1,0],[1,1,0],[0,0.25,0],[0,0.5,0],[0,0.75,0],[1,0.25,0],[1,0.5,0],[1,0.75,0]];outlineConnect=0;fontColor=#232F3E;gradientColor=#945DF2;gradientDirection=north;fillColor=#5A30B5;strokeColor=#ffffff;dashed=0;verticalLabelPosition=bottom;verticalAlign=top;align=center;html=1;fontSize=12;fontStyle=0;aspect=fixed;shape=mxgraph.aws4.resourceIcon;resIcon=mxgraph.aws4.cloudfront;" vertex="1" parent="61">
                    <mxGeometry x="240" y="270" width="78" height="78" as="geometry"/>
                </mxCell>
                <mxCell id="62" value="&lt;font color=&quot;#ffffff&quot;&gt;AWS S3&lt;/font&gt;" style="sketch=0;points=[[0,0,0],[0.25,0,0],[0.5,0,0],[0.75,0,0],[1,0,0],[0,1,0],[0.25,1,0],[0.5,1,0],[0.75,1,0],[1,1,0],[0,0.25,0],[0,0.5,0],[0,0.75,0],[1,0.25,0],[1,0.5,0],[1,0.75,0]];outlineConnect=0;fontColor=#232F3E;gradientColor=#60A337;gradientDirection=north;fillColor=#277116;strokeColor=#ffffff;dashed=0;verticalLabelPosition=bottom;verticalAlign=top;align=center;html=1;fontSize=12;fontStyle=0;aspect=fixed;shape=mxgraph.aws4.resourceIcon;resIcon=mxgraph.aws4.s3;" vertex="1" parent="61">
                    <mxGeometry x="760" y="270" width="78" height="78" as="geometry"/>
                </mxCell>
                <mxCell id="84" style="edgeStyle=orthogonalEdgeStyle;sketch=1;html=1;dashed=1;fontColor=#FFFFFF;" edge="1" parent="61" source="3" target="62">
                    <mxGeometry relative="1" as="geometry"/>
                </mxCell>
                <mxCell id="89" value="Origin Access Identity" style="edgeLabel;html=1;align=center;verticalAlign=middle;resizable=0;points=[];fontColor=#FFFFFF;fontSize=16;" vertex="1" connectable="0" parent="84">
                    <mxGeometry x="-0.2128" relative="1" as="geometry">
                        <mxPoint x="27" as="offset"/>
                    </mxGeometry>
                </mxCell>
                <mxCell id="63" value="&lt;font color=&quot;#ffffff&quot;&gt;Route 53&lt;br&gt;paulserban.eu&lt;br&gt;&lt;/font&gt;" style="sketch=0;points=[[0,0,0],[0.25,0,0],[0.5,0,0],[0.75,0,0],[1,0,0],[0,1,0],[0.25,1,0],[0.5,1,0],[0.75,1,0],[1,1,0],[0,0.25,0],[0,0.5,0],[0,0.75,0],[1,0.25,0],[1,0.5,0],[1,0.75,0]];outlineConnect=0;fontColor=#232F3E;gradientColor=#945DF2;gradientDirection=north;fillColor=#5A30B5;strokeColor=#ffffff;dashed=0;verticalLabelPosition=bottom;verticalAlign=top;align=center;html=1;fontSize=12;fontStyle=0;aspect=fixed;shape=mxgraph.aws4.resourceIcon;resIcon=mxgraph.aws4.route_53;" vertex="1" parent="1">
                    <mxGeometry x="1240" y="960" width="78" height="78" as="geometry"/>
                </mxCell>
                <mxCell id="73" style="edgeStyle=orthogonalEdgeStyle;html=1;fontColor=#FFFFFF;dashed=1;sketch=1;curveFitting=1;jiggle=2;" edge="1" parent="1" source="95" target="59">
                    <mxGeometry relative="1" as="geometry"/>
                </mxCell>
                <mxCell id="76" value="&lt;font style=&quot;font-size: 16px;&quot;&gt;1. Publish NEW Content&lt;br&gt;2. Invalidate cache&lt;/font&gt;" style="edgeLabel;html=1;align=center;verticalAlign=middle;resizable=0;points=[];fontColor=#FFFFFF;" vertex="1" connectable="0" parent="73">
                    <mxGeometry x="0.1216" y="2" relative="1" as="geometry">
                        <mxPoint as="offset"/>
                    </mxGeometry>
                </mxCell>
                <mxCell id="87" value="&lt;font color=&quot;#ffffff&quot;&gt;End User&lt;/font&gt;" style="sketch=0;points=[[0,0,0],[0.25,0,0],[0.5,0,0],[0.75,0,0],[1,0,0],[0,1,0],[0.25,1,0],[0.5,1,0],[0.75,1,0],[1,1,0],[0,0.25,0],[0,0.5,0],[0,0.75,0],[1,0.25,0],[1,0.5,0],[1,0.75,0]];outlineConnect=0;fontColor=#232F3E;gradientColor=#4AB29A;gradientDirection=north;fillColor=#116D5B;strokeColor=#ffffff;dashed=0;verticalLabelPosition=bottom;verticalAlign=top;align=center;html=1;fontSize=12;fontStyle=0;aspect=fixed;shape=mxgraph.aws4.resourceIcon;resIcon=mxgraph.aws4.desktop_and_app_streaming;" vertex="1" parent="1">
                    <mxGeometry x="660" y="960" width="78" height="78" as="geometry"/>
                </mxCell>
                <mxCell id="90" value="&lt;font color=&quot;#ffffff&quot; style=&quot;font-size: 12px;&quot;&gt;Certificate Manager&lt;/font&gt;" style="sketch=0;points=[[0,0,0],[0.25,0,0],[0.5,0,0],[0.75,0,0],[1,0,0],[0,1,0],[0.25,1,0],[0.5,1,0],[0.75,1,0],[1,1,0],[0,0.25,0],[0,0.5,0],[0,0.75,0],[1,0.25,0],[1,0.5,0],[1,0.75,0]];outlineConnect=0;fontColor=#232F3E;gradientColor=#F54749;gradientDirection=north;fillColor=#C7131F;strokeColor=#ffffff;dashed=0;verticalLabelPosition=bottom;verticalAlign=top;align=center;html=1;fontSize=12;fontStyle=0;aspect=fixed;shape=mxgraph.aws4.resourceIcon;resIcon=mxgraph.aws4.certificate_manager_3;" vertex="1" parent="1">
                    <mxGeometry x="1400" y="960" width="78" height="78" as="geometry"/>
                </mxCell>
                <mxCell id="95" value="GitHub" style="swimlane;startSize=0;sketch=0;fontSize=12;fontColor=#FFFFFF;fillColor=none;gradientColor=default;gradientDirection=east;" vertex="1" parent="1">
                    <mxGeometry x="1080" y="-30" width="1040" height="720" as="geometry">
                        <mxRectangle x="40" y="-590" width="50" height="40" as="alternateBounds"/>
                    </mxGeometry>
                </mxCell>
                <mxCell id="23" style="edgeStyle=orthogonalEdgeStyle;curved=1;html=1;sketch=1;curveFitting=1;jiggle=2;" edge="1" parent="95" target="18">
                    <mxGeometry relative="1" as="geometry">
                        <mxPoint x="120.00000000000045" y="221.25" as="sourcePoint"/>
                    </mxGeometry>
                </mxCell>
                <mxCell id="5" value="main" style="ellipse;whiteSpace=wrap;html=1;sketch=1;curveFitting=1;jiggle=2;" vertex="1" parent="95">
                    <mxGeometry x="40" y="191.25" width="80" height="80" as="geometry"/>
                </mxCell>
                <mxCell id="6" value="release" style="ellipse;whiteSpace=wrap;html=1;sketch=1;curveFitting=1;jiggle=2;" vertex="1" parent="95">
                    <mxGeometry x="120" y="304.75" width="80" height="80" as="geometry"/>
                </mxCell>
                <mxCell id="7" style="edgeStyle=orthogonalEdgeStyle;html=1;entryX=0;entryY=0.5;entryDx=0;entryDy=0;curved=1;sketch=1;curveFitting=1;jiggle=2;" edge="1" parent="95" source="5" target="6">
                    <mxGeometry relative="1" as="geometry">
                        <mxPoint x="80.00000000000045" y="261.25" as="sourcePoint"/>
                    </mxGeometry>
                </mxCell>
                <mxCell id="8" value="develop" style="ellipse;whiteSpace=wrap;html=1;sketch=1;curveFitting=1;jiggle=2;" vertex="1" parent="95">
                    <mxGeometry x="200" y="424.75" width="80" height="80" as="geometry"/>
                </mxCell>
                <mxCell id="9" style="edgeStyle=orthogonalEdgeStyle;curved=1;html=1;entryX=0;entryY=0.5;entryDx=0;entryDy=0;sketch=1;curveFitting=1;jiggle=2;" edge="1" parent="95" source="6" target="8">
                    <mxGeometry relative="1" as="geometry"/>
                </mxCell>
                <mxCell id="10" value="feature / bugfix" style="ellipse;whiteSpace=wrap;html=1;sketch=1;curveFitting=1;jiggle=2;" vertex="1" parent="95">
                    <mxGeometry x="280" y="563.75" width="80" height="80" as="geometry"/>
                </mxCell>
                <mxCell id="11" style="edgeStyle=orthogonalEdgeStyle;curved=1;html=1;entryX=0;entryY=0.5;entryDx=0;entryDy=0;sketch=1;curveFitting=1;jiggle=2;" edge="1" parent="95" source="8" target="10">
                    <mxGeometry relative="1" as="geometry"/>
                </mxCell>
                <mxCell id="12" value="develop" style="ellipse;whiteSpace=wrap;html=1;sketch=1;curveFitting=1;jiggle=2;" vertex="1" parent="95">
                    <mxGeometry x="360" y="424.75" width="80" height="80" as="geometry"/>
                </mxCell>
                <mxCell id="21" style="edgeStyle=orthogonalEdgeStyle;curved=1;html=1;sketch=1;curveFitting=1;jiggle=2;" edge="1" parent="95" source="8" target="12">
                    <mxGeometry relative="1" as="geometry"/>
                </mxCell>
                <mxCell id="13" style="edgeStyle=orthogonalEdgeStyle;curved=1;html=1;exitX=1;exitY=0.5;exitDx=0;exitDy=0;sketch=1;curveFitting=1;jiggle=2;" edge="1" parent="95" source="10" target="12">
                    <mxGeometry relative="1" as="geometry">
                        <Array as="points">
                            <mxPoint x="400" y="603.75"/>
                        </Array>
                    </mxGeometry>
                </mxCell>
                <mxCell id="15" value="release" style="ellipse;whiteSpace=wrap;html=1;sketch=1;curveFitting=1;jiggle=2;" vertex="1" parent="95">
                    <mxGeometry x="440" y="304.75" width="80" height="80" as="geometry"/>
                </mxCell>
                <mxCell id="22" style="edgeStyle=orthogonalEdgeStyle;curved=1;html=1;sketch=1;curveFitting=1;jiggle=2;" edge="1" parent="95" source="6" target="15">
                    <mxGeometry relative="1" as="geometry"/>
                </mxCell>
                <mxCell id="16" style="edgeStyle=orthogonalEdgeStyle;curved=1;html=1;sketch=1;curveFitting=1;jiggle=2;" edge="1" parent="95" source="12" target="15">
                    <mxGeometry relative="1" as="geometry">
                        <Array as="points">
                            <mxPoint x="480" y="464.75"/>
                        </Array>
                    </mxGeometry>
                </mxCell>
                <mxCell id="18" value="main" style="ellipse;whiteSpace=wrap;html=1;sketch=1;curveFitting=1;jiggle=2;" vertex="1" parent="95">
                    <mxGeometry x="520" y="181.25" width="80" height="80" as="geometry"/>
                </mxCell>
                <mxCell id="19" style="edgeStyle=orthogonalEdgeStyle;curved=1;html=1;sketch=1;curveFitting=1;jiggle=2;" edge="1" parent="95" source="15" target="18">
                    <mxGeometry relative="1" as="geometry">
                        <Array as="points">
                            <mxPoint x="560" y="344.75"/>
                        </Array>
                    </mxGeometry>
                </mxCell>
                <mxCell id="64" value="Github Repository" style="dashed=0;outlineConnect=0;html=1;align=center;labelPosition=center;verticalLabelPosition=bottom;verticalAlign=top;shape=mxgraph.weblogos.github" vertex="1" parent="95">
                    <mxGeometry x="930" y="566.25" width="75" height="75" as="geometry"/>
                </mxCell>
                <mxCell id="72" style="edgeStyle=orthogonalEdgeStyle;curved=1;html=1;fontColor=#FFFFFF;dashed=1;sketch=1;curveFitting=1;jiggle=2;" edge="1" parent="95" source="65" target="64">
                    <mxGeometry relative="1" as="geometry"/>
                </mxCell>
                <mxCell id="65" value="DEV" style="whiteSpace=wrap;html=1;fontColor=#FFFFFF;sketch=1;curveFitting=1;jiggle=2;" vertex="1" parent="95">
                    <mxGeometry x="670" y="573.75" width="120" height="60" as="geometry"/>
                </mxCell>
                <mxCell id="24" style="edgeStyle=orthogonalEdgeStyle;curved=1;html=1;dashed=1;sketch=1;curveFitting=1;jiggle=2;" edge="1" parent="95" source="10" target="65">
                    <mxGeometry relative="1" as="geometry">
                        <mxPoint x="670" y="602.75" as="targetPoint"/>
                    </mxGeometry>
                </mxCell>
                <mxCell id="71" style="edgeStyle=orthogonalEdgeStyle;curved=1;html=1;fontColor=#FFFFFF;dashed=1;sketch=1;curveFitting=1;jiggle=2;" edge="1" parent="95" source="66" target="64">
                    <mxGeometry relative="1" as="geometry"/>
                </mxCell>
                <mxCell id="66" value="TEST" style="whiteSpace=wrap;html=1;fontColor=#FFFFFF;sketch=1;curveFitting=1;jiggle=2;" vertex="1" parent="95">
                    <mxGeometry x="670" y="434.75" width="120" height="60" as="geometry"/>
                </mxCell>
                <mxCell id="25" style="edgeStyle=orthogonalEdgeStyle;curved=1;html=1;dashed=1;sketch=1;curveFitting=1;jiggle=2;" edge="1" parent="95" source="12" target="66">
                    <mxGeometry relative="1" as="geometry">
                        <mxPoint x="670" y="463.75" as="targetPoint"/>
                    </mxGeometry>
                </mxCell>
                <mxCell id="27" style="edgeStyle=orthogonalEdgeStyle;curved=1;html=1;dashed=1;sketch=1;curveFitting=1;jiggle=2;" edge="1" parent="95" source="15" target="66">
                    <mxGeometry relative="1" as="geometry">
                        <mxPoint x="709.9750000000004" y="433.75" as="targetPoint"/>
                    </mxGeometry>
                </mxCell>
                <mxCell id="70" style="edgeStyle=orthogonalEdgeStyle;curved=1;html=1;fontColor=#FFFFFF;dashed=1;sketch=1;curveFitting=1;jiggle=2;" edge="1" parent="95" source="67" target="64">
                    <mxGeometry relative="1" as="geometry">
                        <Array as="points">
                            <mxPoint x="968" y="221.75"/>
                        </Array>
                    </mxGeometry>
                </mxCell>
                <mxCell id="67" value="STAGE" style="whiteSpace=wrap;html=1;fontColor=#FFFFFF;sketch=1;curveFitting=1;jiggle=2;" vertex="1" parent="95">
                    <mxGeometry x="670" y="191.25" width="120" height="60" as="geometry"/>
                </mxCell>
                <mxCell id="26" style="edgeStyle=orthogonalEdgeStyle;curved=1;html=1;dashed=1;sketch=1;curveFitting=1;jiggle=2;" edge="1" parent="95" source="18" target="67">
                    <mxGeometry relative="1" as="geometry">
                        <mxPoint x="670" y="220.30555555555566" as="targetPoint"/>
                    </mxGeometry>
                </mxCell>
                <mxCell id="69" style="edgeStyle=orthogonalEdgeStyle;curved=1;html=1;fontColor=#FFFFFF;dashed=1;sketch=1;curveFitting=1;jiggle=2;" edge="1" parent="95" source="68" target="64">
                    <mxGeometry relative="1" as="geometry"/>
                </mxCell>
                <mxCell id="68" value="PROD" style="whiteSpace=wrap;html=1;fontColor=#FFFFFF;sketch=1;curveFitting=1;jiggle=2;" vertex="1" parent="95">
                    <mxGeometry x="670" y="63.75" width="120" height="60" as="geometry"/>
                </mxCell>
                <mxCell id="28" style="edgeStyle=orthogonalEdgeStyle;curved=1;html=1;dashed=1;sketch=1;curveFitting=1;jiggle=2;" edge="1" parent="95" source="18" target="68">
                    <mxGeometry relative="1" as="geometry">
                        <mxPoint x="670" y="93.75" as="targetPoint"/>
                        <Array as="points">
                            <mxPoint x="560" y="93.75"/>
                        </Array>
                    </mxGeometry>
                </mxCell>
            </root>
        </mxGraphModel>
    </diagram>
</mxfile>